<svg width="36" height="37" viewBox="0 0 36 37" fill="none" xmlns="http://www.w3.org/2000/svg">
<path fill-rule="evenodd" clip-rule="evenodd" d="M7.96558 4.22636C6.71375 5.12669 5.58176 6.19116 4.59909 7.38944C8.61473 7.00598 13.7165 7.63213 19.6395 10.6783C25.9646 13.9311 31.0578 14.0411 34.6024 13.3378C34.2807 12.3362 33.8758 11.3735 33.3962 10.4584C29.3386 10.8986 24.1367 10.316 18.0743 7.19826C14.2247 5.21844 10.8312 4.40289 7.96558 4.22636ZM31.0259 6.98827C27.8216 3.30578 23.1649 0.988281 17.9819 0.988281C16.4599 0.988281 14.983 1.18818 13.5751 1.56381C15.482 2.09896 17.5076 2.88187 19.6395 3.97832C24.078 6.26096 27.91 6.99592 31.0259 6.98827ZM35.3602 16.8536C31.078 17.7233 25.1646 17.5447 18.0743 13.8982C11.4457 10.4892 6.16982 10.5321 2.6116 11.3455C2.42794 11.3874 2.2486 11.4315 2.07359 11.4774C1.60773 12.5195 1.23586 13.6154 0.969048 14.7533C1.25402 14.675 1.5485 14.6006 1.85233 14.5311C6.16906 13.5444 12.2682 13.5873 19.6395 17.3783C26.2683 20.7873 31.5441 20.7444 35.1024 19.931C35.2242 19.9032 35.3444 19.8744 35.4625 19.8447C35.4755 19.5609 35.4819 19.2754 35.4819 18.9883C35.4819 18.266 35.4406 17.5537 35.3602 16.8536ZM34.8911 23.6433C30.6504 24.4059 24.9093 24.1132 18.0743 20.5982C11.4457 17.1892 6.16982 17.2321 2.6116 18.0454C1.82178 18.2259 1.11127 18.4457 0.484497 18.6779C0.482788 18.7811 0.481934 18.8846 0.481934 18.9883C0.481934 28.9294 8.31695 36.9883 17.9819 36.9883C26.0819 36.9883 32.8966 31.3281 34.8911 23.6433Z" fill="black"/>
</svg>
