<svg width="16" height="21" viewBox="0 0 16 21" fill="none" xmlns="http://www.w3.org/2000/svg">
<path fill-rule="evenodd" clip-rule="evenodd" d="M13.76 13.4952V7.79002C13.76 4.84231 11.52 2.43344 8.64 2.11648V1.13391C8.64 0.785261 8.352 0.5 8 0.5C7.648 0.5 7.36 0.785261 7.36 1.13391V2.11648C4.48 2.43344 2.24 4.84231 2.24 7.79002V13.4952C2.24 14.8582 1.28 15.9992 0 16.2845V18.2496H16V16.2845C14.72 15.9992 13.76 14.8582 13.76 13.4952ZM7.936 20.5C9.344 20.5 10.592 19.8661 11.424 18.8835H4.448C5.28 19.8661 6.56 20.5 7.936 20.5ZM3.52 13.4952C3.52 14.9532 2.752 16.2528 1.568 16.9818C1.472 17.0452 14.528 17.0452 14.432 16.9818C13.248 16.2528 12.48 14.9532 12.48 13.4952V7.79002C12.48 5.50792 10.752 3.63788 8.512 3.38431L8 3.32092L7.488 3.38431C5.248 3.63788 3.52 5.50792 3.52 7.79002V13.4952Z" fill="black"/>
</svg>
