<svg width="20" height="21" viewBox="0 0 20 21" fill="none" xmlns="http://www.w3.org/2000/svg">
<path fill-rule="evenodd" clip-rule="evenodd" d="M20 7.99196C18.8746 8.28135 18.0386 9.31029 18.0386 10.5C18.0386 11.6897 18.8746 12.7186 20 13.008C19.7428 14.0048 19.3569 14.9373 18.8424 15.8055C17.8457 15.1945 16.5273 15.3232 15.6913 16.1913C14.8553 17.0595 14.7267 18.3457 15.3055 19.3424C14.4373 19.8569 13.5048 20.2428 12.508 20.5C12.2186 19.3746 11.2219 18.5386 10 18.5386C8.77814 18.5386 7.78135 19.3746 7.49196 20.5C6.49518 20.2428 5.5627 19.8569 4.69453 19.3424C5.30547 18.3457 5.17685 17.0273 4.30868 16.1913C3.44051 15.3553 2.15434 15.2267 1.15756 15.8055C0.643087 14.9373 0.257235 14.0048 0 13.008C1.1254 12.7186 1.96141 11.6897 1.96141 10.5C1.96141 9.31029 1.1254 8.28135 0 7.99196C0.257235 6.99518 0.643087 6.0627 1.15756 5.19453C2.15434 5.80547 3.47267 5.67685 4.30868 4.80868C5.14469 3.94051 5.27331 2.65434 4.69453 1.65756C5.5627 1.14309 6.49518 0.757235 7.49196 0.5C7.78135 1.6254 8.81029 2.46141 10 2.46141C11.1897 2.46141 12.2186 1.6254 12.508 0.5C13.5048 0.757235 14.4373 1.14309 15.3055 1.65756C14.6945 2.65434 14.8232 3.97267 15.6913 4.80868C16.5595 5.64469 17.8457 5.77331 18.8424 5.19453C19.3569 6.0627 19.7428 6.99518 20 7.99196ZM14.7588 15.2588C15.6913 14.3264 16.9775 13.9727 18.1994 14.1977C18.2749 14.0719 18.3307 13.9263 18.3822 13.7919L18.3822 13.7918C18.3965 13.7546 18.4105 13.7182 18.4244 13.6833C17.3955 12.9759 16.7524 11.8183 16.7524 10.5C16.7524 9.18167 17.3955 8.02412 18.4244 7.31672L18.1994 6.80225C16.9775 7.02733 15.6913 6.67363 14.7588 5.74116C13.8264 4.80868 13.4727 3.52251 13.6977 2.30064C13.5719 2.22511 13.4263 2.16929 13.2918 2.11775L13.2918 2.11775L13.2918 2.11774C13.2545 2.10346 13.2182 2.08951 13.1833 2.07556C12.4759 3.1045 11.3183 3.74759 10 3.74759C8.68167 3.74759 7.52412 3.1045 6.81672 2.07556C6.78183 2.08952 6.74543 2.10347 6.70818 2.11775L6.70817 2.11776C6.57373 2.1693 6.42813 2.22511 6.30225 2.30064C6.52733 3.52251 6.17363 4.80868 5.24116 5.74116C4.30868 6.67363 3.02251 7.02733 1.80064 6.80225C1.72511 6.92813 1.6693 7.07373 1.61776 7.20817L1.61775 7.20818C1.60347 7.24543 1.58952 7.28183 1.57556 7.31672C2.6045 8.02412 3.24759 9.18167 3.24759 10.5C3.24759 11.8183 2.6045 12.9759 1.57556 13.6833C1.58951 13.7182 1.60346 13.7545 1.61774 13.7918L1.61775 13.7918L1.61775 13.7918C1.66929 13.9263 1.72511 14.0719 1.80064 14.1977C3.02251 13.9727 4.30868 14.3264 5.24116 15.2588C6.17363 16.1913 6.52733 17.4775 6.30225 18.6994C6.46302 18.7958 6.62379 18.8601 6.81672 18.9244C7.52412 17.8955 8.68167 17.2524 10 17.2524C11.3183 17.2524 12.4759 17.8955 13.1833 18.9244L13.6977 18.6994C13.4727 17.4775 13.8264 16.1913 14.7588 15.2588ZM10 5.99839C7.52412 5.99839 5.49839 8.02412 5.49839 10.5C5.49839 12.9759 7.52412 15.0016 10 15.0016C12.4759 15.0016 14.5016 12.9759 14.5016 10.5C14.5016 8.02412 12.4759 5.99839 10 5.99839ZM6.78457 10.5C6.78457 12.2685 8.23151 13.7154 10 13.7154C11.7685 13.7154 13.2154 12.2685 13.2154 10.5C13.2154 8.73151 11.7685 7.28457 10 7.28457C8.23151 7.28457 6.78457 8.73151 6.78457 10.5Z" fill="black"/>
</svg>
