<svg width="161" height="41" viewBox="0 0 161 41" fill="none" xmlns="http://www.w3.org/2000/svg">
<g clip-path="url(#clip0_68_1110)">
<path fill-rule="evenodd" clip-rule="evenodd" d="M28.5077 33.2182C26.1016 35.6244 22.4181 35.6244 15.7895 35.6244C9.16227 35.6244 5.4788 35.623 3.07128 33.2182C0.666504 30.812 0.666504 27.1273 0.666504 20.5C0.666504 13.8742 0.666504 10.1879 3.07128 7.78313C5.4788 5.37561 9.16227 5.37561 15.7895 5.37561C22.4181 5.37561 26.1016 5.37561 28.5077 7.78313C30.9153 10.1893 30.9153 13.8727 30.9153 20.5C30.9153 27.1273 30.9153 30.812 28.5077 33.2182ZM17.236 18.5572L8.10632 18.5393L8.10494 20.7874L16.7217 20.8038L16.2144 23.0478L8.10494 23.0313V25.2779L15.707 25.2944H15.6946C15.4004 26.4274 16.2295 27.5507 17.368 27.5507H18.9464L19.8181 25.2944H15.707L16.2144 23.0505L21.3814 23.0601L22.183 20.8135L16.7327 20.8038L17.2428 18.5572L24.6207 18.5215L25.5351 16.2844L17.7529 16.3105L17.236 18.5572ZM16.4233 14.0556L8.10632 14.0377L8.10494 16.2858L17.7516 16.3023L17.8382 15.9105C18.054 14.9645 17.3638 14.0556 16.4233 14.0556Z" fill="#0C0D0E"/>
<path d="M54.4366 29.2438H58.303L58.6769 26.9319H59.3802C59.9424 28.6313 61.4647 29.4796 63.0357 29.4796C66.2909 29.4796 68.2833 27.3574 68.2833 22.8297C68.2833 18.8435 66.6425 16.1799 63.1278 16.1799C61.4423 16.1799 59.9424 17.1929 59.3802 18.7012H58.6769L58.9113 15.1641V11.556H54.4366V29.2438ZM58.9113 23.2302V22.4516C58.9113 20.7996 59.8252 19.7867 61.4186 19.7867C62.8013 19.7867 63.7376 20.4006 63.7376 21.9801V23.7018C63.7376 24.9994 63.1055 25.8715 61.441 25.8715C59.7792 25.8715 58.9113 24.8571 58.9113 23.2302ZM69.4539 22.8521C69.4539 26.8384 72.0548 29.4796 76.0132 29.4796C79.2948 29.4796 81.7059 27.7342 82.0354 25.0469H77.7712C77.654 25.7766 76.9047 26.2007 75.8736 26.2007C74.8188 26.2007 73.9509 25.5422 73.9509 24.5502V23.8902H81.8945C82.0354 23.3963 82.0808 22.7112 82.0808 22.0512C82.0808 18.231 79.3409 16.1785 75.8736 16.1785C72.2655 16.1785 69.4539 18.5839 69.4539 22.8521ZM73.9509 21.2015V20.9433C73.9509 20.0936 74.7476 19.4797 75.8262 19.4797C76.9047 19.4797 77.608 20.0936 77.608 20.9433V21.2015H73.9509ZM92.5135 16.3431C91.0846 16.3431 89.9829 17.1692 89.6311 19.2202H88.9282L88.3893 16.4143H82.5083V20.0225H84.4545V29.2438H88.929V24.0088C88.929 21.3201 90.5927 20.5652 92.4888 20.5652C92.7483 20.5652 93.0062 20.5889 93.2864 20.6127V16.4143C93.0325 16.3627 92.773 16.339 92.5135 16.3431ZM94.4756 16.4143V33.1827H98.9501V30.494L98.7152 26.9556H99.4189C99.9809 28.4652 101.481 29.4796 103.168 29.4796C106.681 29.4796 108.322 26.8147 108.322 22.8297C108.322 18.3021 106.33 16.1799 103.073 16.1799C101.504 16.1799 99.9809 17.0283 99.4189 18.7249H98.7152L98.3403 16.4143H94.4756ZM98.9501 22.4279C98.9501 20.8011 99.8177 19.7881 101.481 19.7881C103.144 19.7881 103.776 20.6601 103.776 21.9563V23.678C103.776 25.2589 102.84 25.8715 101.458 25.8715C99.8639 25.8715 98.9501 24.8571 98.9501 23.2065V22.4279ZM113.879 25.7542V11.556H109.427V25.8254C109.427 27.8765 110.249 29.2453 112.825 29.2453H116.784V25.7557H113.879V25.7542ZM117.608 25.6343C117.608 27.9937 119.317 29.4796 121.942 29.4796C124.119 29.4796 125.643 28.4652 126.136 26.9556H126.766V29.2438H131.454V25.9412H129.836V20.8261C129.836 18.044 128.244 16.1799 124.166 16.1799C120.418 16.1799 118.24 17.8068 118.379 20.967H122.48C122.409 19.9053 123.042 19.5523 123.956 19.5523C124.822 19.5523 125.383 19.9053 125.383 20.8024V21.6982L121.825 21.934C119.317 22.1 117.606 23.2776 117.606 25.6371L117.608 25.6343ZM122.105 25.0232C122.105 24.5278 122.457 24.0562 123.254 24.0088L125.385 23.8665V25.3524C125.033 25.8952 124.33 26.2482 123.464 26.2482C122.526 26.2482 122.106 25.8478 122.106 25.305L122.105 25.0232ZM132.81 29.2438H137.286V22.3805C137.286 20.8722 138.035 19.8104 139.534 19.8104C140.8 19.8104 141.503 20.5415 141.503 22.1224V29.2438H146V20.5415C146 17.924 144.572 16.1785 142.018 16.1785C140.05 16.1785 138.644 17.098 137.988 18.7012H137.286L136.747 16.4143H132.81V29.2438ZM147.437 22.8521C147.437 26.8384 150.039 29.4796 153.999 29.4796C157.278 29.4796 159.692 27.7342 160.02 25.0469H155.756C155.639 25.7766 154.89 26.2007 153.858 26.2007C152.803 26.2007 151.937 25.5422 151.937 24.5502V23.8902H159.88C160.02 23.3963 160.067 22.7112 160.067 22.0512C160.067 18.231 157.325 16.1785 153.858 16.1785C150.25 16.1785 147.437 18.5839 147.437 22.8521ZM151.937 21.2015V20.9433C151.937 20.0936 152.734 19.4797 153.811 19.4797C154.89 19.4797 155.592 20.0936 155.592 20.9433V21.2015H151.937ZM44.1019 16.4157H52.9326V29.2438H48.437V20.0211H44.1019V29.2425H39.605V20.0211H37.2832V16.4157H39.605V15.3106C39.605 15.012 39.6091 14.793 39.6161 14.6548C39.6245 14.5097 39.6482 14.3297 39.6858 14.1135C39.7305 13.8986 39.8003 13.6684 39.891 13.4228C40.3417 12.1769 41.4899 11.5574 43.3345 11.5574H46.9831V15.0455H44.1019V16.4157ZM48.4593 15.0455V11.556H52.9326V15.0455H48.4593Z" fill="#0C0D0E"/>
</g>
<defs>
<clipPath id="clip0_68_1110">
<rect width="160" height="40" fill="white" transform="translate(0.666504 0.5)"/>
</clipPath>
</defs>
</svg>
