<svg width="161" height="41" viewBox="0 0 161 41" fill="none" xmlns="http://www.w3.org/2000/svg">
<g clip-path="url(#clip0_68_1121)">
<path d="M44.6657 10.4999L44.6086 10.5189V19.033H36.5325V10.5189L36.4754 10.4999C35.2754 10.2522 34.0945 10.2522 32.9136 10.4999L32.8564 10.5189V30.0995L32.9136 30.1185C33.504 30.2328 34.0945 30.309 34.6849 30.309C35.2754 30.309 35.8659 30.2518 36.4754 30.1185L36.5325 30.0995V22.1568H44.6086V30.0995L44.6657 30.1185C45.8467 30.3661 47.0466 30.3661 48.2276 30.1185L48.2847 30.0995V10.5189L48.2276 10.4999C47.0276 10.2713 45.8467 10.2713 44.6657 10.4999ZM57.1798 16.0045C52.9512 16.0045 50.437 18.6711 50.437 23.1473C50.437 25.471 50.9704 27.3186 52.037 28.5948C53.1989 29.9852 54.9322 30.69 57.2369 30.69C61.1416 30.69 63.1416 28.3661 63.3892 26.0615V26.0043L63.332 25.9853C62.3416 25.6615 61.4273 25.5853 60.3416 25.7377H60.3035V25.7757C60.0749 27.1472 58.9321 27.9662 57.275 27.9662C54.9512 27.9662 53.8084 26.6901 53.7703 24.0615H63.5987V24.0044C63.8844 21.4139 63.3701 19.3187 62.113 17.8902C60.9512 16.6712 59.256 16.0045 57.1798 16.0045ZM57.1416 18.5378C58.1131 18.5378 58.9321 18.8425 59.4845 19.433C60.0559 20.0425 60.3416 20.9568 60.2844 22.0425H53.7703C53.8275 19.814 55.0656 18.5378 57.1416 18.5378ZM65.9796 10.4999L65.9224 10.5189V30.0995L65.9796 30.1185C66.532 30.2328 67.0844 30.309 67.6558 30.309C68.2081 30.309 68.7796 30.2518 69.332 30.1185L69.3891 30.0995V10.5189L69.332 10.4999C68.2272 10.2522 67.1034 10.2713 65.9796 10.4999ZM79.027 16.0045C77.5604 16.0045 76.0175 16.5759 74.5508 17.6616L74.3413 16.6331L74.3032 16.6141C73.4652 16.3664 72.7795 16.3664 71.9604 16.6141L71.9224 16.6331V36.1184L71.9795 36.1375C72.5319 36.2517 73.0842 36.3279 73.6556 36.3279C74.2271 36.3279 74.7794 36.2708 75.3318 36.1375L75.3889 36.1184V29.6042C76.5508 30.3471 77.7889 30.69 79.1793 30.69C83.0265 30.69 85.3313 27.9662 85.3313 23.3758C85.3129 18.7092 83.0265 16.0045 79.027 16.0045ZM75.3318 19.8711C76.3604 19.1664 77.3128 18.8425 78.3412 18.8425C80.6841 18.8425 81.9601 20.4616 81.9601 23.4329C81.9601 26.3472 80.7033 27.89 78.3032 27.89C77.2746 27.89 76.3032 27.5662 75.3318 26.8805V19.8711ZM100.017 19.5664C99.4265 19.3377 98.8929 19.1473 98.3793 18.9759C95.7121 18.0235 94.1121 17.4521 94.0745 16.0045C94.0553 15.3378 94.2649 14.7665 94.7217 14.2902C95.3889 13.6045 96.5121 13.2426 97.8841 13.2426C99.2361 13.2426 100.284 13.6045 100.912 14.2712C101.446 14.8426 101.675 15.6236 101.617 16.5949V16.6521L101.675 16.6712C102.836 16.8997 103.998 16.8807 105.255 16.5949L105.312 16.5759V16.5188C105.388 14.8807 104.893 13.4521 103.883 12.3855C102.627 11.0522 100.607 10.3475 98.0553 10.3284H97.9793C93.2361 10.3284 90.3793 12.4427 90.3409 15.9855C90.3217 19.5092 93.5601 20.6901 95.5025 21.3758L95.7889 21.4901C96.4361 21.7187 97.0457 21.9282 97.5793 22.1187C100.207 23.0329 101.788 23.5853 101.846 24.9757C101.865 25.6996 101.655 26.2901 101.217 26.7472C100.588 27.3948 99.4841 27.7185 98.0169 27.6995C96.3977 27.6995 95.1601 27.2805 94.4553 26.5186C93.9409 25.9472 93.7313 25.2234 93.8073 24.3472V24.2901L93.7505 24.271C92.5697 24.0425 91.3697 24.0615 90.1889 24.3281L90.1505 24.3472V24.4044C90.0553 25.9853 90.5313 27.3948 91.5601 28.4805C92.9313 29.9471 95.1793 30.709 98.0745 30.69C100.912 30.69 105.579 29.9281 105.617 24.9757C105.56 21.6806 102.741 20.614 100.017 19.5664ZM114.131 18.8425C116.474 18.8425 117.027 20.3663 117.141 21.2616V21.3187H117.198C118.283 21.4901 119.312 21.4139 120.303 21.1282L120.359 21.1092V21.0521C120.264 19.6806 119.674 18.4425 118.703 17.5473C117.598 16.5378 116.017 15.9855 114.151 15.9855C109.693 15.9855 107.236 18.5949 107.236 23.3377C107.236 28.0614 109.674 30.6709 114.093 30.6709C115.998 30.6709 117.598 30.1185 118.722 29.0709C119.655 28.1948 120.227 27.0138 120.34 25.7377V25.6805L120.283 25.6615C119.35 25.3377 118.322 25.2805 117.198 25.471H117.159V25.5091C116.855 27.6424 114.779 27.7948 114.151 27.7948C111.751 27.7948 110.627 26.3662 110.627 23.2996C110.607 20.2711 111.731 18.8425 114.131 18.8425ZM128.798 16.0045C124.417 16.0045 121.998 18.614 121.998 23.3568C121.998 28.0805 124.417 30.69 128.798 30.69C133.179 30.69 135.598 28.0805 135.598 23.3568C135.598 18.614 133.179 16.0045 128.798 16.0045ZM132.283 23.3758C132.283 26.4043 131.14 27.8709 128.798 27.8709C126.455 27.8709 125.312 26.4043 125.312 23.3758C125.312 20.2901 126.417 18.8425 128.798 18.8425C131.14 18.8425 132.283 20.3282 132.283 23.3758ZM146.569 16.6331L146.511 16.6521V26.4043C145.407 27.3567 144.397 27.7757 143.235 27.7757C141.597 27.7757 140.892 26.8424 140.892 24.6329V16.6331L140.835 16.6141C139.731 16.3473 138.607 16.3473 137.483 16.6141L137.426 16.6331V25.4138C137.426 28.7471 139.216 30.6709 142.359 30.6709C144.035 30.6709 145.502 30.0233 147.083 28.5757L147.407 30.0995L147.445 30.1185C148.245 30.3281 149.083 30.3281 149.883 30.1185L149.94 30.0995V16.6331L149.883 16.6141C148.816 16.3473 147.692 16.3473 146.569 16.6331ZM160.492 27.49L160.473 27.4329L160.416 27.4519C159.083 27.7567 158.302 27.7376 157.845 27.3757C157.463 27.0709 157.292 26.5377 157.292 25.6996V19.4521H159.997L160.016 19.3949C160.207 18.4806 160.207 17.5473 160.016 16.6141L159.997 16.5569H157.292V12.8617L157.235 12.8427C156.131 12.595 155.007 12.595 153.902 12.8427L153.845 12.8617L153.863 16.5569H152.15L152.131 16.6141C151.921 17.5283 151.921 18.4806 152.131 19.3949L152.15 19.4521H153.863L153.883 25.452C153.883 27.1281 153.978 28.8233 155.14 29.7947C155.768 30.309 156.683 30.5757 157.863 30.5757C158.587 30.5757 159.426 30.4805 160.397 30.29H160.435L160.454 30.2518C160.721 29.3566 160.74 28.4233 160.492 27.49Z" fill="#0C0D0E"/>
<path d="M2.55218 23.0139L11.8091 13.757C13.0091 12.576 13.7519 10.9189 13.7519 9.10944C13.7519 7.31899 13.0282 5.68093 11.8663 4.5L2.60933 13.757C1.40935 14.9379 0.666504 16.595 0.666504 18.4045C0.666504 20.214 1.3903 21.833 2.55218 23.0139ZM24.9708 17.6045L15.7139 26.8615C14.5139 28.0424 13.771 29.6995 13.771 31.509C13.771 33.2994 14.4948 34.9375 15.6567 36.1185L24.9137 26.8615C26.1136 25.6806 26.8565 24.0234 26.8565 22.2139C26.8565 20.4045 26.1327 18.7854 24.9708 17.6045ZM24.9137 13.776C26.1136 12.5951 26.8565 10.938 26.8565 9.12848C26.8565 7.33804 26.1327 5.69998 24.9708 4.51905L2.60933 26.8615C1.40935 28.0614 0.666504 29.6995 0.666504 31.5281C0.666504 33.3185 1.3903 34.9566 2.55218 36.1375L24.9137 13.776Z" fill="#0C0D0E"/>
</g>
<defs>
<clipPath id="clip0_68_1121">
<rect width="160" height="40" fill="white" transform="translate(0.666504 0.5)"/>
</clipPath>
</defs>
</svg>
