<svg width="150" height="37" viewBox="0 0 150 37" fill="none" xmlns="http://www.w3.org/2000/svg">
<path d="M30.274 12.4807C24.8248 12.4807 20.5671 16.6172 20.5671 22.1549C20.5671 27.6925 24.7172 31.7937 30.274 31.7937C35.8307 31.7937 40.053 27.6217 40.053 22.1195C40.053 16.6526 35.9028 12.4807 30.274 12.4807ZM30.3107 27.8028C27.2076 27.8028 24.9338 25.3928 24.9338 22.1562C24.9338 18.8829 27.1708 16.4742 30.274 16.4742C33.4138 16.4742 35.6863 18.9197 35.6863 22.1562C35.6863 25.3928 33.4138 27.8028 30.3107 27.8028ZM41.243 16.6894H43.9499V31.4355H48.2798V12.8401H41.243V16.6894ZM9.67013 16.4729C11.944 16.4729 13.7482 17.8753 14.433 19.9613H19.0162C18.1856 15.5021 14.5052 12.4807 9.70687 12.4807C4.25774 12.4807 0 16.6172 0 22.1562C0 27.6952 4.15018 31.795 9.70687 31.795C14.3976 31.795 18.1502 28.7737 18.9808 24.2776H14.433C13.7836 26.3636 11.9794 27.8028 9.70552 27.8028C6.56566 27.8028 4.36531 25.3928 4.36531 22.1562C4.36667 18.8829 6.53162 16.4729 9.67013 16.4729ZM123.514 20.3575L120.339 19.8905C118.823 19.6754 117.741 19.1716 117.741 17.9843C117.741 16.6894 119.149 16.0426 121.061 16.0426C123.153 16.0426 124.489 16.9413 124.777 18.4159H128.963C128.494 14.6756 125.607 12.482 121.169 12.482C116.586 12.482 113.555 14.8199 113.555 18.1286C113.555 21.293 115.541 23.1284 119.545 23.7031L122.72 24.1701C124.273 24.3852 125.138 24.9979 125.138 26.1485C125.138 27.6231 123.623 28.2345 121.53 28.2345C118.968 28.2345 117.524 27.1915 117.308 25.6092H113.05C113.448 29.242 116.297 31.795 121.493 31.795C126.221 31.795 129.359 29.6369 129.359 25.932C129.359 22.6233 127.087 20.8968 123.514 20.3575ZM46.1149 5.17973C44.5273 5.17973 43.3358 6.33029 43.3358 7.91248C43.3358 9.49466 44.5258 10.6452 46.1149 10.6452C47.7025 10.6452 48.8939 9.49466 48.8939 7.91248C48.8939 6.33029 47.7025 5.17973 46.1149 5.17973ZM109.658 19.207C109.658 15.1794 107.205 12.482 102.009 12.482C97.1017 12.482 94.359 14.9642 93.8175 18.7767H98.112C98.3287 17.3021 99.483 16.0794 101.937 16.0794C104.138 16.0794 105.221 17.0503 105.221 18.2375C105.221 19.7843 103.236 20.1792 100.782 20.4311C97.4625 20.7906 93.3487 21.9411 93.3487 26.2574C93.3487 29.6028 95.8395 31.7596 99.8085 31.7596C102.911 31.7596 104.86 30.4648 105.835 28.4142C105.98 30.2483 107.35 31.4355 109.264 31.4355H111.789V27.5877H109.66V19.207H109.658ZM105.4 23.8827C105.4 26.365 103.236 28.1991 100.601 28.1991C98.9767 28.1991 97.6058 27.5155 97.6058 26.0777C97.6058 24.2436 99.807 23.7398 101.827 23.5246C103.776 23.3449 104.859 22.9133 105.4 22.0854V23.8827ZM82.4153 12.4807C79.9973 12.4807 77.9767 13.4883 76.533 15.178V5H72.2033V31.4355H76.461V28.9902C77.904 30.7521 79.962 31.795 82.4153 31.795C87.6113 31.795 91.545 27.6952 91.545 22.1562C91.545 16.6172 87.5393 12.4807 82.4153 12.4807ZM81.7658 27.8028C78.663 27.8028 76.389 25.3928 76.389 22.1562C76.389 18.9197 78.6982 16.4742 81.801 16.4742C84.9413 16.4742 87.1418 18.8843 87.1418 22.1562C87.1418 25.3928 84.8693 27.8028 81.7658 27.8028ZM61.8469 12.4807C59.0324 12.4807 57.1916 13.6312 56.1091 15.2502V12.8401H51.8146V31.4342H56.1445V21.3284C56.1445 18.4867 57.9486 16.4729 60.6187 16.4729C63.1091 16.4729 64.66 18.2348 64.66 20.7892V31.4355H68.9899V20.4665C68.9912 15.7893 66.5743 12.4807 61.8469 12.4807ZM150 21.5448C150 16.2223 146.103 12.482 140.87 12.482C135.313 12.482 131.236 16.6539 131.236 22.1562C131.236 27.9471 135.602 31.795 140.942 31.795C145.454 31.795 148.99 29.1331 149.891 25.3574H145.38C144.73 27.0117 143.143 27.9472 141.014 27.9472C138.234 27.9472 136.141 26.2206 135.673 23.1992H149.999V21.5448H150ZM135.926 20.1057C136.613 17.5159 138.561 16.2577 140.798 16.2577C143.252 16.2577 145.128 17.6602 145.561 20.1057H135.926Z" fill="#0C0D0E"/>
</svg>
