<svg width="141" height="63" viewBox="0 0 141 63" fill="none" xmlns="http://www.w3.org/2000/svg">
<g clip-path="url(#clip0_68_1106)">
<path d="M74.1172 20.4278C74.1172 22.0023 72.8488 23.2707 71.2738 23.2707C69.6995 23.2707 68.4312 22.0023 68.4312 20.4278C68.4312 18.8533 69.6558 17.585 71.2738 17.585C72.8922 17.6287 74.1172 18.8971 74.1172 20.4278ZM62.3956 26.1573C62.3956 26.4197 62.3956 26.8571 62.3956 26.8571C62.3956 26.8571 61.0398 25.1076 58.1532 25.1076C53.3859 25.1076 49.6683 28.7377 49.6683 33.7674C49.6683 38.7533 53.3421 42.4272 58.1532 42.4272C61.0835 42.4272 62.3956 40.634 62.3956 40.634V41.3776C62.3956 41.7274 62.658 41.9899 63.0079 41.9899H66.5505V25.545C66.5505 25.545 63.3141 25.545 63.0079 25.545C62.658 25.545 62.3956 25.8512 62.3956 26.1573ZM62.3956 36.6977C61.7395 37.6599 60.4275 38.4909 58.853 38.4909C56.0538 38.4909 53.9107 36.7415 53.9107 33.7674C53.9107 30.7934 56.0538 29.0439 58.853 29.0439C60.3837 29.0439 61.7833 29.9186 62.3956 30.8371V36.6977ZM69.1747 25.545H73.3731V41.9899H69.1747V25.545ZM131.892 25.1076C129.006 25.1076 127.65 26.8571 127.65 26.8571V17.6287H123.452V41.9899C123.452 41.9899 126.688 41.9899 126.994 41.9899C127.344 41.9899 127.606 41.6837 127.606 41.3776V40.634C127.606 40.634 128.962 42.4272 131.849 42.4272C136.616 42.4272 140.334 38.7533 140.334 33.7674C140.334 28.7815 136.616 25.1076 131.892 25.1076ZM131.193 38.4472C129.575 38.4472 128.306 37.6162 127.65 36.654V30.7934C128.306 29.9186 129.706 29.0002 131.193 29.0002C133.992 29.0002 136.135 30.7496 136.135 33.7237C136.135 36.6977 133.992 38.4472 131.193 38.4472ZM121.265 32.2366V42.0336H117.066V32.7177C117.066 30.0061 116.191 28.9127 113.83 28.9127C112.561 28.9127 111.249 29.5687 110.418 30.5309V41.9899H106.219V25.545H109.544C109.894 25.545 110.155 25.8512 110.155 26.1573V26.8571C111.38 25.5887 112.999 25.1076 114.616 25.1076C116.454 25.1076 117.984 25.6325 119.209 26.6821C120.696 27.9068 121.265 29.4813 121.265 32.2366ZM96.0286 25.1076C93.1425 25.1076 91.7866 26.8571 91.7866 26.8571V17.6287H87.588V41.9899C87.588 41.9899 90.8241 41.9899 91.13 41.9899C91.48 41.9899 91.7425 41.6837 91.7425 41.3776V40.634C91.7425 40.634 93.0984 42.4272 95.9852 42.4272C100.752 42.4272 104.47 38.7533 104.47 33.7674C104.513 28.7815 100.796 25.1076 96.0286 25.1076ZM95.3293 38.4472C93.7109 38.4472 92.4425 37.6162 91.7866 36.654V30.7934C92.4425 29.9186 93.8418 29.0002 95.3293 29.0002C98.1279 29.0002 100.271 30.7496 100.271 33.7237C100.271 36.6977 98.1279 38.4472 95.3293 38.4472ZM83.9578 25.1076C85.2262 25.1076 85.8821 25.3263 85.8821 25.3263V29.2189C85.8821 29.2189 82.3828 28.038 80.196 30.5309V42.0336H75.9974V25.545C75.9974 25.545 79.2342 25.545 79.5401 25.545C79.8901 25.545 80.1526 25.8512 80.1526 26.1573V26.8571C80.9401 25.9386 82.6453 25.1076 83.9578 25.1076ZM40.3524 40.5028C40.1338 39.978 39.9151 39.4094 39.6964 38.9283C39.3465 38.1411 38.9966 37.3975 38.6905 36.6977L38.6468 36.654C35.6289 30.0936 32.3925 23.4457 28.981 16.8852L28.8498 16.6228C28.4999 15.9667 28.15 15.2669 27.8001 14.5672C27.3628 13.7799 26.9254 12.9489 26.2256 12.1617C24.8261 10.4122 22.8142 9.45001 20.6711 9.45001C18.4843 9.45001 16.5162 10.4122 15.0729 12.0742C14.4168 12.8614 13.9357 13.6924 13.4983 14.4797C13.1485 15.1795 12.7986 15.8793 12.4487 16.5353L12.3174 16.7977C8.94981 23.3582 5.66956 30.0061 2.65175 36.5665L2.60801 36.654C2.30186 37.3538 1.95197 38.0973 1.60207 38.8846C1.38339 39.3657 1.16471 39.8905 0.946031 40.4591C0.377459 42.0773 0.202514 43.6081 0.421196 45.1826C0.902295 48.4628 3.08911 51.2182 6.10692 52.4428C7.24406 52.9239 8.42495 53.1426 9.64953 53.1426C9.99946 53.1426 10.4368 53.0989 10.7867 53.0551C12.23 52.8802 13.717 52.3991 15.1604 51.5681C16.9535 50.5622 18.6592 49.1189 20.5837 47.0195C22.508 49.1189 24.2575 50.5622 26.0069 51.5681C27.4503 52.3991 28.9373 52.8802 30.3806 53.0551C30.7305 53.0989 31.1678 53.1426 31.5177 53.1426C32.7423 53.1426 33.967 52.9239 35.0604 52.4428C38.1219 51.2182 40.265 48.4191 40.7461 45.1826C41.096 43.6518 40.9211 42.121 40.3524 40.5028ZM20.6274 42.7771C18.2656 39.8031 16.7349 37.0039 16.21 34.6422C15.9913 33.6362 15.9476 32.7615 16.0788 31.9743C16.1663 31.2745 16.4287 30.6621 16.7786 30.1373C17.6096 28.9564 19.0092 28.2129 20.6274 28.2129C22.2456 28.2129 23.6889 28.9127 24.4762 30.1373C24.8261 30.6621 25.0885 31.2745 25.176 31.9743C25.3072 32.7615 25.2635 33.68 25.0448 34.6422C24.5199 36.9602 22.9892 39.7593 20.6274 42.7771ZM38.0781 44.8327C37.772 47.107 36.2413 49.0751 34.0982 49.9498C33.0485 50.3872 31.9114 50.5185 30.7742 50.3872C29.6808 50.256 28.5874 49.9061 27.4503 49.2501C25.8757 48.3753 24.3012 47.0195 22.4643 45.0076C25.3509 41.465 27.1004 38.2286 27.7564 35.3419C28.0625 33.9861 28.1063 32.7615 27.9751 31.6243C27.8001 30.5309 27.4065 29.525 26.7942 28.6502C25.4384 26.6821 23.1641 25.545 20.6274 25.545C18.0907 25.545 15.8164 26.7259 14.4606 28.6502C13.8483 29.525 13.4546 30.5309 13.2797 31.6243C13.1047 32.7615 13.1485 34.0298 13.4983 35.3419C14.1544 38.2286 15.9476 41.5088 18.7905 45.0514C16.9973 47.0633 15.379 48.4191 13.8045 49.2938C12.6674 49.9498 11.574 50.2998 10.4806 50.431C9.29967 50.5622 8.16252 50.3872 7.15659 49.9936C5.01351 49.1189 3.48274 47.1508 3.17658 44.8764C3.04538 43.7831 3.13285 42.6897 3.57021 41.465C3.70142 41.0276 3.9201 40.5903 4.13878 40.0654C4.44494 39.3657 4.79483 38.6222 5.14472 37.8786L5.18845 37.7912C8.20627 31.2745 11.4427 24.6265 14.8104 18.1535L14.9417 17.8911C15.2915 17.2351 15.6415 16.5353 15.9913 15.8793C16.3413 15.1795 16.7349 14.5234 17.216 13.9549C18.1344 12.9052 19.359 12.3366 20.7149 12.3366C22.0707 12.3366 23.2953 12.9052 24.2137 13.9549C24.6948 14.5234 25.0885 15.1795 25.4384 15.8793C25.7882 16.5353 26.1382 17.2351 26.488 17.8911L26.6193 18.1535C29.9432 24.6703 33.1797 31.3182 36.1975 37.8349V37.8786C36.5474 38.5784 36.8536 39.3657 37.2034 40.0654C37.4221 40.5903 37.6408 41.0276 37.772 41.465C38.1219 42.6021 38.2531 43.6956 38.0781 44.8327Z" fill="#0C0D0E"/>
</g>
<defs>
<clipPath id="clip0_68_1106">
<rect width="140" height="63" fill="white" transform="translate(0.333496)"/>
</clipPath>
</defs>
</svg>
