<svg width="121" height="53" viewBox="0 0 121 53" fill="none" xmlns="http://www.w3.org/2000/svg">
<g clip-path="url(#clip0_68_1117)">
<path d="M0.333496 28.1756C0.333496 19.3759 7.26416 13.1017 17.1207 13.1017C20.0461 13.1017 23.239 13.6467 25.0302 14.4591V19.9545H24.8297L17.9769 15.0488C17.6233 14.9262 16.8856 14.8468 16.1862 14.8468C11.002 14.8468 7.34162 19.6765 7.34162 26.3402C7.34162 33.7826 11.9029 39.5782 17.6989 39.5782C18.0915 39.5716 18.4827 39.5308 18.8682 39.456L18.7566 39.4099V27.0521L16.999 24.9049V24.7048H27.2438V24.9049L25.4862 27.0521V41.4252H25.2861L20.847 40.0568C19.1342 40.9134 16.4863 41.5363 14.1058 41.5363C5.94046 41.5363 0.333496 36.1184 0.333496 28.1756ZM31.983 24.4042L29.9138 22.3354V22.1777L37.2783 20.2325H37.6675L37.9441 24.4042H38.1774C39.8575 21.4451 41.337 20.2325 43.2057 20.2325C43.9845 20.2325 44.6521 20.4662 44.997 20.7779V27.0853H44.7969L40.8607 24.4369C40.7437 24.4123 40.6243 24.401 40.5048 24.4033C39.6929 24.4033 38.5246 25.182 38.1354 26.1166V38.888L40.1927 40.7585V40.9586H30.2254V40.7585L31.983 38.8894V24.4042ZM46.6674 40.9466V40.7908L48.4249 38.8774V24.4042L46.3561 22.3797V22.1777L54.1878 20.2307H54.5769V38.8884L56.3349 40.8018V40.9577H46.6674V40.9466ZM48.1455 14.0474C48.1455 12.134 49.4365 10.9656 51.4942 10.9656C53.5519 10.9656 54.8424 12.134 54.8424 14.0474C54.8424 15.9165 53.5635 17.0844 51.4942 17.0844C49.425 17.0844 48.1455 15.9165 48.1455 14.0474ZM59.1939 40.9466V40.7465L60.9515 38.8774V23.0362H58.1814V22.8804L60.9845 20.4662C61.8413 14.815 65.3123 10.9656 69.5507 10.9656C70.6073 10.9656 71.8559 11.1994 72.3539 11.4774L71.7311 16.5837H71.5307L65.9579 14.1253C64.7453 14.2475 63.6983 16.2277 63.6983 18.019C63.6983 20.3215 65.4563 21.601 68.4473 21.601H73.6313C73.9433 15.6071 77.2913 10.9656 81.4631 10.9656C82.4423 10.9656 83.6105 11.1994 84.1553 11.4774L83.4881 16.5394H83.2877L78.3389 14.2014C77.2043 14.3125 76.3145 15.9921 76.3145 17.8281C76.3145 20.3178 77.9501 21.6088 81.1097 21.6088H93.0245L92.7119 23.8375V38.9603L94.4699 40.7959V40.9517H84.7805V40.7959L86.5715 38.8824V23.0362H79.7519V38.8884L82.0883 40.7585V40.9586H71.8067V40.7585L73.5977 38.8451V23.0362H67.0925V38.8884L69.4283 40.7585V40.9586H59.193L59.1939 40.9466ZM86.3045 14.0474C86.3045 12.134 87.5837 10.9656 89.6531 10.9656C91.7555 10.9656 93.0461 12.134 93.0461 14.0474C93.0461 15.9165 91.7549 17.0844 89.6531 17.0844C87.5837 17.0844 86.3045 15.9165 86.3045 14.0474ZM105.261 38.8884L107.018 40.7585V40.9586H97.3511V40.7585L99.1091 38.8894V24.412L97.0397 22.3432V22.1427L104.404 20.2293H104.794L105.07 23.8892H105.337C107.472 21.4308 109.775 20.2293 112.345 20.2293C115.816 20.2293 118.23 22.4885 118.23 25.6804V38.8852L119.988 40.7543V40.9544H110.287V40.7543L112.078 38.763V26.905C112.078 24.9916 110.91 23.8237 109.041 23.8237C107.797 23.8237 106.552 24.3239 105.26 25.3364L105.261 38.8884Z" fill="#0C0D0E"/>
</g>
<defs>
<clipPath id="clip0_68_1117">
<rect width="120" height="52" fill="white" transform="translate(0.333496 0.5)"/>
</clipPath>
</defs>
</svg>
